<svg width="530" height="543" viewBox="0 0 530 543" fill="none" xmlns="http://www.w3.org/2000/svg">
<path d="M510.891 109.131C508.324 100.631 504.924 92.4047 500.741 84.5728V84.5728L507.063 63.8792L466.21 22.9196L445.481 29.295C437.674 25.061 429.45 21.6472 420.941 19.1086V19.1086L410.79 0H353.037L342.868 19.1086C334.33 21.6493 326.077 25.0628 318.239 29.295V29.295L297.527 22.9374L256.568 63.897L262.908 84.6084C258.703 92.4303 255.302 100.658 252.757 109.166L233.719 119.335V177.106L252.828 187.275C255.371 195.78 258.779 204.003 262.997 211.815V211.815L256.657 232.491L297.616 273.45L318.328 267.128C326.147 271.335 334.375 274.73 342.886 277.261L353.037 296.423H410.879L421.03 277.315C429.532 274.763 437.754 271.356 445.57 267.146L466.299 273.468L507.259 232.508L500.847 211.85C505.027 204.027 508.416 195.806 510.963 187.31V187.31L530 177.106V119.282L510.891 109.131ZM381.851 253.077C361.109 253.074 340.835 246.92 323.59 235.394C306.346 223.868 292.907 207.488 284.972 188.324C277.037 169.16 274.963 148.074 279.011 127.732C283.06 107.389 293.05 88.7041 307.717 74.0389C322.385 59.3737 341.072 49.3872 361.415 45.342C381.758 41.2969 402.844 43.3748 422.006 51.313C441.169 59.2512 457.547 72.6932 469.07 89.9394C480.593 107.186 486.743 127.461 486.743 148.203C486.738 176.019 475.685 202.694 456.015 222.361C436.344 242.029 409.667 253.077 381.851 253.077V253.077Z" fill="#BBBBBB"/>
<path d="M381.851 58.0391C364.016 58.0461 346.583 63.3412 331.758 73.2549C316.932 83.1685 305.379 97.2556 298.558 113.735C291.738 130.214 289.957 148.346 293.441 165.837C296.925 183.328 305.517 199.394 318.13 212.003C330.744 224.611 346.813 233.197 364.306 236.674C381.798 240.151 399.929 238.363 416.406 231.536C432.882 224.709 446.965 213.15 456.873 198.321C466.781 183.491 472.069 166.056 472.069 148.222C472.069 136.376 469.735 124.646 465.201 113.702C460.666 102.758 454.02 92.815 445.642 84.4403C437.264 76.0656 427.318 69.4236 416.373 64.8936C405.427 60.3636 393.697 58.0344 381.851 58.0391V58.0391ZM381.851 226.401C366.388 226.405 351.272 221.823 338.413 213.235C325.555 204.648 315.532 192.44 309.611 178.156C303.691 163.872 302.139 148.153 305.152 132.987C308.165 117.821 315.608 103.889 326.539 92.9529C337.47 82.0168 351.399 74.5677 366.563 71.5477C381.728 68.5277 397.448 70.0723 411.734 75.9863C426.021 81.9002 438.233 91.9179 446.827 104.773C455.42 117.627 460.009 132.741 460.012 148.204V148.204C459.97 168.924 451.723 188.784 437.075 203.438C422.427 218.093 402.571 226.349 381.851 226.401V226.401Z" fill="#BBBBBB"/>
<path opacity="0.4" d="M510.891 109.131C508.324 100.631 504.924 92.4047 500.741 84.5728V84.5728L507.063 63.8792L466.21 22.9196L445.481 29.295C437.674 25.061 429.45 21.6472 420.941 19.1086V19.1086L410.79 0H353.037L342.868 19.1086C334.33 21.6493 326.077 25.0628 318.239 29.295V29.295L297.527 22.9374L256.568 63.897L262.908 84.6084C258.703 92.4303 255.302 100.658 252.757 109.166L233.719 119.335V177.106L252.828 187.275C255.371 195.78 258.779 204.003 262.997 211.815V211.815L256.657 232.491L297.616 273.45L318.328 267.128C326.147 271.335 334.375 274.73 342.886 277.261L353.037 296.423H410.879L421.03 277.315C429.532 274.763 437.754 271.356 445.57 267.146L466.299 273.468L507.259 232.508L500.847 211.85C505.027 204.027 508.416 195.806 510.963 187.31V187.31L530 177.106V119.282L510.891 109.131ZM381.851 253.077C361.109 253.074 340.835 246.92 323.59 235.394C306.346 223.868 292.907 207.488 284.972 188.324C277.037 169.16 274.963 148.074 279.011 127.732C283.06 107.389 293.05 88.7041 307.717 74.0389C322.385 59.3737 341.072 49.3872 361.415 45.342C381.758 41.2969 402.844 43.3748 422.006 51.313C441.169 59.2512 457.547 72.6932 469.07 89.9394C480.593 107.186 486.743 127.461 486.743 148.203C486.738 176.019 475.685 202.694 456.015 222.361C436.344 242.029 409.667 253.077 381.851 253.077V253.077Z" fill="white"/>
<path opacity="0.4" d="M381.851 58.0391C364.016 58.0461 346.583 63.3412 331.758 73.2549C316.932 83.1685 305.379 97.2556 298.558 113.735C291.738 130.214 289.957 148.346 293.441 165.837C296.925 183.328 305.517 199.394 318.13 212.003C330.744 224.611 346.813 233.197 364.306 236.674C381.798 240.151 399.929 238.363 416.406 231.536C432.882 224.709 446.965 213.15 456.873 198.321C466.781 183.491 472.069 166.056 472.069 148.222C472.069 136.376 469.735 124.646 465.201 113.702C460.666 102.758 454.02 92.815 445.642 84.4403C437.264 76.0656 427.318 69.4236 416.373 64.8936C405.427 60.3636 393.697 58.0344 381.851 58.0391V58.0391ZM381.851 226.401C366.388 226.405 351.272 221.823 338.413 213.235C325.555 204.648 315.532 192.44 309.611 178.156C303.691 163.872 302.139 148.153 305.152 132.987C308.165 117.821 315.608 103.889 326.539 92.9529C337.47 82.0168 351.399 74.5677 366.563 71.5477C381.728 68.5277 397.448 70.0723 411.734 75.9863C426.021 81.9002 438.233 91.9179 446.827 104.773C455.42 117.627 460.009 132.741 460.012 148.204V148.204C459.97 168.924 451.723 188.784 437.075 203.438C422.427 218.093 402.571 226.349 381.851 226.401V226.401Z" fill="white"/>
<path d="M147.027 223.624C145.685 219.118 143.895 214.757 141.685 210.606L145.051 199.619L123.306 177.91L112.318 181.276C108.168 179.065 103.807 177.275 99.3004 175.933L93.9579 165.854H63.1847L57.8422 175.933C53.3353 177.275 48.9742 179.065 44.8241 181.276L33.8362 177.91L12.1454 199.619L15.4934 210.606C13.2894 214.76 11.4999 219.12 10.1509 223.624L0 228.967V259.669L10.1509 265.011C11.4921 269.519 13.2819 273.88 15.4934 278.03L12.1454 289.017L33.8362 310.726L44.8241 307.36C48.9777 309.564 53.338 311.353 57.8422 312.703L63.1847 322.765H93.8866L99.2292 312.703C103.733 311.353 108.094 309.564 112.247 307.36L123.235 310.726L144.944 289.017L141.578 278.03C143.789 273.879 145.578 269.518 146.92 265.011L157.054 259.669V229.02L147.027 223.624ZM78.5357 287.967C69.9098 287.967 61.4777 285.409 54.3055 280.617C47.1334 275.824 41.5434 269.013 38.2424 261.044C34.9414 253.074 34.0777 244.305 35.7605 235.845C37.4434 227.385 41.5971 219.614 47.6965 213.514C53.7959 207.415 61.5671 203.261 70.0272 201.578C78.4873 199.896 87.2564 200.759 95.2257 204.06C103.195 207.361 110.006 212.951 114.799 220.123C119.591 227.296 122.149 235.728 122.149 244.354C122.144 255.919 117.548 267.009 109.37 275.187C101.192 283.366 90.1011 287.962 78.5357 287.967V287.967Z" fill="#999999"/>
<path d="M147.027 223.624C145.685 219.118 143.895 214.757 141.685 210.606L145.051 199.619L123.306 177.91L112.318 181.276C108.168 179.065 103.807 177.275 99.3004 175.933L93.9579 165.854H63.1847L57.8422 175.933C53.3353 177.275 48.9742 179.065 44.8241 181.276L33.8362 177.91L12.1454 199.619L15.4934 210.606C13.2894 214.76 11.4999 219.12 10.1509 223.624L0 228.967V259.669L10.1509 265.011C11.4921 269.519 13.2819 273.88 15.4934 278.03L12.1454 289.017L33.8362 310.726L44.8241 307.36C48.9777 309.564 53.338 311.353 57.8422 312.703L63.1847 322.765H93.8866L99.2292 312.703C103.733 311.353 108.094 309.564 112.247 307.36L123.235 310.726L144.944 289.017L141.578 278.03C143.789 273.879 145.578 269.518 146.92 265.011L157.054 259.669V229.02L147.027 223.624ZM78.5357 287.967C69.9098 287.967 61.4777 285.409 54.3055 280.617C47.1334 275.824 41.5434 269.013 38.2424 261.044C34.9414 253.074 34.0777 244.305 35.7605 235.845C37.4434 227.385 41.5971 219.614 47.6965 213.514C53.7959 207.415 61.5671 203.261 70.0272 201.578C78.4873 199.896 87.2564 200.759 95.2257 204.06C103.195 207.361 110.006 212.951 114.799 220.123C119.591 227.296 122.149 235.728 122.149 244.354C122.144 255.919 117.548 267.009 109.37 275.187C101.192 283.366 90.1011 287.962 78.5357 287.967V287.967Z" fill="#BBBBBB"/>
<path d="M78.5356 229.908C75.6756 229.908 72.8798 230.756 70.5018 232.345C68.1238 233.934 66.2703 236.193 65.1758 238.835C64.0814 241.477 63.795 244.385 64.353 247.19C64.9109 249.995 66.2881 252.572 68.3105 254.594C70.3328 256.616 72.9095 257.993 75.7145 258.551C78.5196 259.109 81.4271 258.823 84.0695 257.729C86.7118 256.634 88.9702 254.781 90.5591 252.403C92.1481 250.025 92.9962 247.229 92.9962 244.369C92.9962 240.534 91.4727 236.855 88.7608 234.144C86.0489 231.432 82.3708 229.908 78.5356 229.908Z" fill="#999999"/>
<path opacity="0.4" d="M147.027 223.624C145.685 219.118 143.895 214.757 141.685 210.606L145.051 199.619L123.306 177.91L112.318 181.276C108.168 179.065 103.807 177.275 99.3004 175.933L93.9579 165.854H63.1847L57.8422 175.933C53.3353 177.275 48.9742 179.065 44.8241 181.276L33.8362 177.91L12.1454 199.619L15.4934 210.606C13.2894 214.76 11.4999 219.12 10.1509 223.624L0 228.967V259.669L10.1509 265.011C11.4921 269.519 13.2819 273.88 15.4934 278.03L12.1454 289.017L33.8362 310.726L44.8241 307.36C48.9777 309.564 53.338 311.353 57.8422 312.703L63.1847 322.765H93.8866L99.2292 312.703C103.733 311.353 108.094 309.564 112.247 307.36L123.235 310.726L144.944 289.017L141.578 278.03C143.789 273.879 145.578 269.518 146.92 265.011L157.054 259.669V229.02L147.027 223.624ZM78.5357 287.967C69.9098 287.967 61.4777 285.409 54.3055 280.617C47.1334 275.824 41.5434 269.013 38.2424 261.044C34.9414 253.074 34.0777 244.305 35.7605 235.845C37.4434 227.385 41.5971 219.614 47.6965 213.514C53.7959 207.415 61.5671 203.261 70.0272 201.578C78.4873 199.896 87.2564 200.759 95.2257 204.06C103.195 207.361 110.006 212.951 114.799 220.123C119.591 227.296 122.149 235.728 122.149 244.354C122.144 255.919 117.548 267.009 109.37 275.187C101.192 283.366 90.1011 287.962 78.5357 287.967V287.967Z" fill="white"/>
<path opacity="0.2" d="M78.5356 229.908C75.6756 229.908 72.8798 230.756 70.5018 232.345C68.1238 233.934 66.2703 236.193 65.1758 238.835C64.0814 241.477 63.795 244.385 64.353 247.19C64.9109 249.995 66.2881 252.572 68.3105 254.594C70.3328 256.616 72.9095 257.993 75.7145 258.551C78.5196 259.109 81.4271 258.823 84.0695 257.729C86.7118 256.634 88.9702 254.781 90.5591 252.403C92.1481 250.025 92.9962 247.229 92.9962 244.369C92.9962 240.534 91.4727 236.855 88.7608 234.144C86.0489 231.432 82.3708 229.908 78.5356 229.908Z" fill="white"/>
<path d="M174.951 195.786L163.197 190.942L162.77 186.525C161.671 185.598 160.647 184.586 159.707 183.498L155.326 183.053L150.464 171.317L153.296 167.951C153.171 166.511 153.171 165.063 153.296 163.624L150.464 160.276L155.362 148.611L159.743 148.184C160.695 147.062 161.731 146.014 162.841 145.049L163.269 140.651L175.022 135.807L178.37 138.62C179.811 138.514 181.257 138.514 182.698 138.62L186.046 135.807L197.799 140.651L198.209 145.049C199.3 145.992 200.323 147.009 201.272 148.095L205.653 148.522L210.497 160.258L207.683 163.606C207.808 165.046 207.808 166.493 207.683 167.933L210.497 171.299L205.653 183.035L201.272 183.48C200.333 184.574 199.308 185.592 198.209 186.525L197.799 190.924L186.046 195.768L182.698 192.954C181.263 193.061 179.823 193.061 178.388 192.954L174.951 195.786ZM183.464 190.443L186.509 192.954L195.413 189.268L195.769 185.332L196.197 185.012C197.446 184 198.596 182.873 199.634 181.646L199.954 181.236L203.89 180.862L207.576 171.958L205.226 168.824V168.307C205.386 166.691 205.386 165.062 205.226 163.446V162.858L207.737 159.795L204.05 150.89L200.132 150.534L199.794 150.107C198.746 148.904 197.583 147.806 196.321 146.83L195.894 146.492L195.538 142.574L186.634 138.87L183.535 141.488H183.018C181.403 141.309 179.772 141.309 178.157 141.488H177.622L174.577 138.959L165.673 142.663L165.299 146.581L164.907 146.919C163.645 147.915 162.487 149.037 161.452 150.267L161.114 150.695L157.178 151.051L153.456 159.955L155.985 163V163.517C155.807 165.132 155.807 166.763 155.985 168.378V168.913L153.456 171.762L157.16 180.666L161.078 181.04L161.417 181.432C162.439 182.7 163.591 183.858 164.854 184.887L165.263 185.208L165.637 189.161L174.542 192.847L177.605 190.336H178.121C179.738 190.497 181.366 190.497 182.983 190.336L183.464 190.443Z" fill="#999999"/>
<path d="M185.796 178.387C183.304 179.423 180.56 179.696 177.913 179.171C175.265 178.647 172.832 177.349 170.923 175.442C169.013 173.534 167.712 171.104 167.184 168.457C166.657 165.81 166.926 163.066 167.959 160.572C168.991 158.078 170.74 155.947 172.984 154.447C175.229 152.948 177.867 152.148 180.566 152.148C183.265 152.149 185.903 152.951 188.147 154.451C190.39 155.952 192.138 158.084 193.169 160.579V160.579C193.856 162.231 194.21 164.002 194.212 165.791C194.214 167.58 193.863 169.352 193.18 171.006C192.497 172.66 191.495 174.163 190.231 175.429C188.968 176.696 187.467 177.701 185.814 178.387H185.796Z" fill="#999999"/>
<path d="M87.6893 167.952C87.4673 167.952 87.2544 167.864 87.0975 167.707C86.9405 167.55 86.8523 167.337 86.8523 167.115V162.858C86.8523 162.637 86.9405 162.424 87.0975 162.267C87.2544 162.11 87.4673 162.021 87.6893 162.021C87.9113 162.021 88.1242 162.11 88.2811 162.267C88.4381 162.424 88.5263 162.637 88.5263 162.858V167.044C88.5362 167.159 88.5219 167.276 88.4843 167.386C88.4467 167.496 88.3866 167.597 88.3078 167.682C88.2291 167.767 88.1334 167.836 88.027 167.882C87.9205 167.928 87.8055 167.952 87.6893 167.952V167.952Z" fill="#BBBBBB"/>
<path d="M87.6893 155.359C87.4673 155.359 87.2544 155.271 87.0975 155.114C86.9405 154.957 86.8523 154.744 86.8523 154.522V146.117C86.8523 145.895 86.9405 145.682 87.0975 145.525C87.2544 145.368 87.4673 145.28 87.6893 145.28C87.9113 145.28 88.1242 145.368 88.2811 145.525C88.4381 145.682 88.5263 145.895 88.5263 146.117V154.522C88.5263 154.744 88.4381 154.957 88.2811 155.114C88.1242 155.271 87.9113 155.359 87.6893 155.359V155.359ZM87.6893 138.548C87.4673 138.548 87.2544 138.46 87.0975 138.303C86.9405 138.146 86.8523 137.933 86.8523 137.711V129.306C86.8523 129.084 86.9405 128.871 87.0975 128.714C87.2544 128.557 87.4673 128.469 87.6893 128.469C87.9113 128.469 88.1242 128.557 88.2811 128.714C88.4381 128.871 88.5263 129.084 88.5263 129.306V137.711C88.5263 137.933 88.4381 138.146 88.2811 138.303C88.1242 138.46 87.9113 138.548 87.6893 138.548V138.548ZM87.6893 121.755C87.4657 121.75 87.2528 121.658 87.0963 121.498C86.9399 121.338 86.8522 121.124 86.8523 120.9V112.512C86.8523 112.29 86.9405 112.077 87.0975 111.92C87.2544 111.763 87.4673 111.675 87.6893 111.675C87.9113 111.675 88.1242 111.763 88.2811 111.92C88.4381 112.077 88.5263 112.29 88.5263 112.512V120.9C88.5264 121.124 88.4387 121.338 88.2823 121.498C88.1258 121.658 87.9129 121.75 87.6893 121.755V121.755ZM87.6893 104.89C87.582 104.897 87.4743 104.883 87.373 104.846C87.2717 104.81 87.1789 104.754 87.1004 104.68C87.0218 104.607 86.9593 104.518 86.9166 104.419C86.8739 104.32 86.852 104.214 86.8523 104.106V103.982C86.8518 101.121 87.3273 98.2806 88.2592 95.5762C88.3358 95.3685 88.4899 95.1986 88.6892 95.1023C88.8885 95.006 89.1174 94.9907 89.3277 95.0597C89.4334 95.0936 89.5311 95.1486 89.6148 95.2215C89.6986 95.2943 89.7667 95.3833 89.815 95.4833C89.8633 95.5832 89.8908 95.6919 89.8958 95.8028C89.9008 95.9136 89.8832 96.0244 89.8441 96.1282C88.9691 98.654 88.5236 101.309 88.5263 103.982C88.527 104.211 88.4412 104.432 88.286 104.6C88.1307 104.769 87.9176 104.872 87.6893 104.89V104.89ZM93.0319 89.361C92.8442 89.3639 92.6614 89.3009 92.5154 89.1829C92.4289 89.1151 92.3565 89.0309 92.3025 88.9351C92.2485 88.8394 92.2139 88.7339 92.2007 88.6247C92.1874 88.5156 92.1958 88.4049 92.2254 88.299C92.255 88.1931 92.3051 88.0941 92.373 88.0075C94.1831 85.7412 96.3625 83.7966 98.8196 82.2554C98.9132 82.1969 99.0173 82.1574 99.1261 82.1392C99.2349 82.121 99.3462 82.1244 99.4537 82.1492C99.5612 82.174 99.6628 82.2197 99.7526 82.2838C99.8424 82.3478 99.9187 82.429 99.9772 82.5225C100.036 82.616 100.075 82.7202 100.093 82.829C100.112 82.9378 100.108 83.0491 100.083 83.1566C100.059 83.2641 100.013 83.3656 99.9488 83.4555C99.8847 83.5453 99.8036 83.6216 99.7101 83.6801C97.4142 85.1053 95.3785 86.9121 93.6908 89.0226C93.5645 89.1934 93.3813 89.3134 93.1743 89.361H93.0319ZM107.012 80.6348C106.804 80.6364 106.603 80.5608 106.448 80.4227C106.293 80.2845 106.195 80.0937 106.173 79.8873C106.151 79.6809 106.206 79.4736 106.328 79.3057C106.45 79.1377 106.63 79.0212 106.833 78.9786C108.658 78.5721 110.521 78.369 112.39 78.3731H115.364C115.474 78.3731 115.583 78.3948 115.684 78.4368C115.786 78.4789 115.878 78.5405 115.956 78.6183C116.033 78.696 116.095 78.7883 116.137 78.8898C116.179 78.9914 116.201 79.1002 116.201 79.2101C116.201 79.32 116.179 79.4289 116.137 79.5304C116.095 79.632 116.033 79.7242 115.956 79.802C115.878 79.8797 115.786 79.9413 115.684 79.9834C115.583 80.0255 115.474 80.0471 115.364 80.0471H112.621C110.872 80.0489 109.129 80.24 107.421 80.617L107.012 80.6348ZM249.818 80.0471H241.555C241.333 80.0471 241.12 79.9589 240.963 79.802C240.806 79.645 240.718 79.4321 240.718 79.2101C240.718 78.9881 240.806 78.7752 240.963 78.6183C241.12 78.4613 241.333 78.3731 241.555 78.3731H249.961C250.071 78.3731 250.18 78.3948 250.281 78.4368C250.383 78.4789 250.475 78.5405 250.553 78.6183C250.63 78.696 250.692 78.7883 250.734 78.8898C250.776 78.9914 250.798 79.1002 250.798 79.2101C250.798 79.32 250.776 79.4289 250.734 79.5304C250.692 79.632 250.63 79.7242 250.553 79.802C250.475 79.8797 250.383 79.9413 250.281 79.9834C250.18 80.0255 250.071 80.0471 249.961 80.0471H249.818ZM233.007 80.0471H224.815C224.705 80.0471 224.596 80.0255 224.495 79.9834C224.393 79.9413 224.301 79.8797 224.223 79.802C224.146 79.7242 224.084 79.632 224.042 79.5304C224 79.4289 223.978 79.32 223.978 79.2101C223.978 79.1002 224 78.9914 224.042 78.8898C224.084 78.7883 224.146 78.696 224.223 78.6183C224.301 78.5405 224.393 78.4789 224.495 78.4368C224.596 78.3948 224.705 78.3731 224.815 78.3731H233.203C233.313 78.3731 233.422 78.3948 233.523 78.4368C233.625 78.4789 233.717 78.5405 233.795 78.6183C233.872 78.696 233.934 78.7883 233.976 78.8898C234.018 78.9914 234.04 79.1002 234.04 79.2101C234.04 79.32 234.018 79.4289 233.976 79.5304C233.934 79.632 233.872 79.7242 233.795 79.802C233.717 79.8797 233.625 79.9413 233.523 79.9834C233.422 80.0255 233.313 80.0471 233.203 80.0471H233.007ZM216.214 80.0471H207.808C207.586 80.0471 207.373 79.9589 207.216 79.802C207.059 79.645 206.971 79.4321 206.971 79.2101C206.971 78.9881 207.059 78.7752 207.216 78.6183C207.373 78.4613 207.586 78.3731 207.808 78.3731H216.214C216.323 78.3731 216.432 78.3948 216.534 78.4368C216.635 78.4789 216.728 78.5405 216.805 78.6183C216.883 78.696 216.945 78.7883 216.987 78.8898C217.029 78.9914 217.051 79.1002 217.051 79.2101C217.051 79.32 217.029 79.4289 216.987 79.5304C216.945 79.632 216.883 79.7242 216.805 79.802C216.728 79.8797 216.635 79.9413 216.534 79.9834C216.432 80.0255 216.323 80.0471 216.214 80.0471V80.0471ZM199.402 80.0471H190.997C190.775 80.0471 190.562 79.9589 190.405 79.802C190.248 79.645 190.16 79.4321 190.16 79.2101C190.16 78.9881 190.248 78.7752 190.405 78.6183C190.562 78.4613 190.775 78.3731 190.997 78.3731H199.402C199.512 78.3731 199.621 78.3948 199.723 78.4368C199.824 78.4789 199.916 78.5405 199.994 78.6183C200.072 78.696 200.134 78.7883 200.176 78.8898C200.218 78.9914 200.239 79.1002 200.239 79.2101C200.239 79.32 200.218 79.4289 200.176 79.5304C200.134 79.632 200.072 79.7242 199.994 79.802C199.916 79.8797 199.824 79.9413 199.723 79.9834C199.621 80.0255 199.512 80.0471 199.402 80.0471V80.0471ZM182.591 80.0471H174.185C173.963 80.0471 173.751 79.9589 173.594 79.802C173.437 79.645 173.348 79.4321 173.348 79.2101C173.348 78.9881 173.437 78.7752 173.594 78.6183C173.751 78.4613 173.963 78.3731 174.185 78.3731H182.591C182.701 78.3731 182.81 78.3948 182.911 78.4368C183.013 78.4789 183.105 78.5405 183.183 78.6183C183.261 78.696 183.322 78.7883 183.364 78.8898C183.406 78.9914 183.428 79.1002 183.428 79.2101C183.428 79.32 183.406 79.4289 183.364 79.5304C183.322 79.632 183.261 79.7242 183.183 79.802C183.105 79.8797 183.013 79.9413 182.911 79.9834C182.81 80.0255 182.701 80.0471 182.591 80.0471V80.0471ZM165.78 80.0471H157.392C157.282 80.0471 157.173 80.0255 157.072 79.9834C156.97 79.9413 156.878 79.8797 156.8 79.802C156.722 79.7242 156.661 79.632 156.619 79.5304C156.577 79.4289 156.555 79.32 156.555 79.2101C156.555 79.1002 156.577 78.9914 156.619 78.8898C156.661 78.7883 156.722 78.696 156.8 78.6183C156.878 78.5405 156.97 78.4789 157.072 78.4368C157.173 78.3948 157.282 78.3731 157.392 78.3731H165.78C165.89 78.3731 165.999 78.3948 166.1 78.4368C166.202 78.4789 166.294 78.5405 166.372 78.6183C166.449 78.696 166.511 78.7883 166.553 78.8898C166.595 78.9914 166.617 79.1002 166.617 79.2101C166.617 79.32 166.595 79.4289 166.553 79.5304C166.511 79.632 166.449 79.7242 166.372 79.802C166.294 79.8797 166.202 79.9413 166.1 79.9834C165.999 80.0255 165.89 80.0471 165.78 80.0471V80.0471ZM148.986 80.0471H140.581C140.359 80.0471 140.146 79.9589 139.989 79.802C139.832 79.645 139.744 79.4321 139.744 79.2101C139.744 78.9881 139.832 78.7752 139.989 78.6183C140.146 78.4613 140.359 78.3731 140.581 78.3731H148.986C149.096 78.3731 149.205 78.3948 149.307 78.4368C149.408 78.4789 149.5 78.5405 149.578 78.6183C149.656 78.696 149.718 78.7883 149.76 78.8898C149.802 78.9914 149.823 79.1002 149.823 79.2101C149.823 79.32 149.802 79.4289 149.76 79.5304C149.718 79.632 149.656 79.7242 149.578 79.802C149.5 79.8797 149.408 79.9413 149.307 79.9834C149.205 80.0255 149.096 80.0471 148.986 80.0471V80.0471ZM132.175 80.0471H123.769C123.547 80.0471 123.335 79.9589 123.178 79.802C123.021 79.645 122.932 79.4321 122.932 79.2101C122.932 78.9881 123.021 78.7752 123.178 78.6183C123.335 78.4613 123.547 78.3731 123.769 78.3731H132.175C132.285 78.3731 132.394 78.3948 132.495 78.4368C132.597 78.4789 132.689 78.5405 132.767 78.6183C132.845 78.696 132.906 78.7883 132.948 78.8898C132.99 78.9914 133.012 79.1002 133.012 79.2101C133.012 79.32 132.99 79.4289 132.948 79.5304C132.906 79.632 132.845 79.7242 132.767 79.802C132.689 79.8797 132.597 79.9413 132.495 79.9834C132.394 80.0255 132.285 80.0471 132.175 80.0471V80.0471Z" fill="#BBBBBB"/>
<path d="M262.587 80.0471H258.384C258.162 80.0471 257.949 79.9589 257.792 79.8019C257.635 79.6449 257.547 79.432 257.547 79.2101C257.547 78.9881 257.635 78.7752 257.792 78.6182C257.949 78.4612 258.162 78.373 258.384 78.373H262.587C262.809 78.373 263.022 78.4612 263.179 78.6182C263.336 78.7752 263.424 78.9881 263.424 79.2101C263.424 79.432 263.336 79.6449 263.179 79.8019C263.022 79.9589 262.809 80.0471 262.587 80.0471V80.0471Z" fill="#BBBBBB"/>
<path d="M362.5 476.807V214.807H167.5L167.5 476.807H362.5Z" fill="#2F2E41"/>
<path d="M396 206.807H134V310.807H396V206.807Z" fill="#3F3D56"/>
<path d="M396 322.807H134V426.807H396V322.807Z" fill="#3F3D56"/>
<path d="M396 438.807H134V542.807H396V438.807Z" fill="#3F3D56"/>
<path d="M396 250.904H134V266.904H396V250.904Z" fill="#1A76D2"/>
<path d="M396 366.904H134V382.904H396V366.904Z" fill="#1A76D2"/>
<path d="M396 482.904H134V498.904H396V482.904Z" fill="#1A76D2"/>
<path d="M345 227.807C348.314 227.807 351 225.12 351 221.807C351 218.493 348.314 215.807 345 215.807C341.686 215.807 339 218.493 339 221.807C339 225.12 341.686 227.807 345 227.807Z" fill="#1A76D2"/>
<path d="M366 227.807C369.314 227.807 372 225.12 372 221.807C372 218.493 369.314 215.807 366 215.807C362.686 215.807 360 218.493 360 221.807C360 225.12 362.686 227.807 366 227.807Z" fill="#1A76D2"/>
<path d="M387 227.807C390.314 227.807 393 225.12 393 221.807C393 218.493 390.314 215.807 387 215.807C383.686 215.807 381 218.493 381 221.807C381 225.12 383.686 227.807 387 227.807Z" fill="#1A76D2"/>
<path d="M345 341.807C348.314 341.807 351 339.12 351 335.807C351 332.493 348.314 329.807 345 329.807C341.686 329.807 339 332.493 339 335.807C339 339.12 341.686 341.807 345 341.807Z" fill="#1A76D2"/>
<path d="M366 341.807C369.314 341.807 372 339.12 372 335.807C372 332.493 369.314 329.807 366 329.807C362.686 329.807 360 332.493 360 335.807C360 339.12 362.686 341.807 366 341.807Z" fill="#1A76D2"/>
<path d="M387 341.807C390.314 341.807 393 339.12 393 335.807C393 332.493 390.314 329.807 387 329.807C383.686 329.807 381 332.493 381 335.807C381 339.12 383.686 341.807 387 341.807Z" fill="#1A76D2"/>
<path d="M345 455.807C348.314 455.807 351 453.12 351 449.807C351 446.493 348.314 443.807 345 443.807C341.686 443.807 339 446.493 339 449.807C339 453.12 341.686 455.807 345 455.807Z" fill="#1A76D2"/>
<path d="M366 455.807C369.314 455.807 372 453.12 372 449.807C372 446.493 369.314 443.807 366 443.807C362.686 443.807 360 446.493 360 449.807C360 453.12 362.686 455.807 366 455.807Z" fill="#1A76D2"/>
<path d="M387 455.807C390.314 455.807 393 453.12 393 449.807C393 446.493 390.314 443.807 387 443.807C383.686 443.807 381 446.493 381 449.807C381 453.12 383.686 455.807 387 455.807Z" fill="#1A76D2"/>
</svg>
