<svg width="398" height="337" viewBox="0 0 398 337" fill="none" xmlns="http://www.w3.org/2000/svg">
<path d="M228.5 270.807L228.5 8.80664L33.5 8.80664L33.5 270.807H228.5Z" fill="#2F2E41"/>
<path d="M262 0.806641H0V104.807H262V0.806641Z" fill="#3F3D56"/>
<path d="M262 116.807H0V220.807H262V116.807Z" fill="#3F3D56"/>
<path d="M262 232.807H0V336.807H262V232.807Z" fill="#3F3D56"/>
<path d="M262 44.9043H0V60.9043H262V44.9043Z" fill="#1A76D2"/>
<path d="M262 160.904H0V176.904H262V160.904Z" fill="#1A76D2"/>
<path d="M262 276.904H0V292.904H262V276.904Z" fill="#1A76D2"/>
<path d="M211 21.8066C214.314 21.8066 217 19.1203 217 15.8066C217 12.4929 214.314 9.80664 211 9.80664C207.686 9.80664 205 12.4929 205 15.8066C205 19.1203 207.686 21.8066 211 21.8066Z" fill="#1A76D2"/>
<path d="M232 21.8066C235.314 21.8066 238 19.1203 238 15.8066C238 12.4929 235.314 9.80664 232 9.80664C228.686 9.80664 226 12.4929 226 15.8066C226 19.1203 228.686 21.8066 232 21.8066Z" fill="#1A76D2"/>
<path d="M253 21.8066C256.314 21.8066 259 19.1203 259 15.8066C259 12.4929 256.314 9.80664 253 9.80664C249.686 9.80664 247 12.4929 247 15.8066C247 19.1203 249.686 21.8066 253 21.8066Z" fill="#1A76D2"/>
<path d="M211 135.807C214.314 135.807 217 133.12 217 129.807C217 126.493 214.314 123.807 211 123.807C207.686 123.807 205 126.493 205 129.807C205 133.12 207.686 135.807 211 135.807Z" fill="#1A76D2"/>
<path d="M232 135.807C235.314 135.807 238 133.12 238 129.807C238 126.493 235.314 123.807 232 123.807C228.686 123.807 226 126.493 226 129.807C226 133.12 228.686 135.807 232 135.807Z" fill="#1A76D2"/>
<path d="M253 135.807C256.314 135.807 259 133.12 259 129.807C259 126.493 256.314 123.807 253 123.807C249.686 123.807 247 126.493 247 129.807C247 133.12 249.686 135.807 253 135.807Z" fill="#1A76D2"/>
<path d="M211 249.807C214.314 249.807 217 247.12 217 243.807C217 240.493 214.314 237.807 211 237.807C207.686 237.807 205 240.493 205 243.807C205 247.12 207.686 249.807 211 249.807Z" fill="#1A76D2"/>
<path d="M232 249.807C235.314 249.807 238 247.12 238 243.807C238 240.493 235.314 237.807 232 237.807C228.686 237.807 226 240.493 226 243.807C226 247.12 228.686 249.807 232 249.807Z" fill="#1A76D2"/>
<path d="M253 249.807C256.314 249.807 259 247.12 259 243.807C259 240.493 256.314 237.807 253 237.807C249.686 237.807 247 240.493 247 243.807C247 247.12 249.686 249.807 253 249.807Z" fill="#1A76D2"/>
<path d="M225.131 336.754H388.271C389.848 336.745 391.396 336.329 392.764 335.545C394.132 334.762 395.275 333.637 396.08 332.281C396.885 330.925 397.326 329.384 397.359 327.808C397.393 326.231 397.018 324.673 396.271 323.284L314.741 171.804C313.959 170.352 312.799 169.138 311.384 168.292C309.968 167.447 308.35 167 306.701 167C305.052 167 303.433 167.447 302.018 168.292C300.602 169.138 299.442 170.352 298.661 171.804L217.091 323.284C216.342 324.676 215.967 326.238 216.002 327.818C216.038 329.398 216.482 330.941 217.292 332.298C218.102 333.655 219.25 334.779 220.624 335.56C221.997 336.341 223.55 336.752 225.131 336.754V336.754ZM317.081 309.074H296.321V288.324H317.081V309.074ZM317.081 274.484H296.321V232.974H317.081V274.484Z" fill="#CC0000"/>
</svg>
